<svg xmlns="http://www.w3.org/2000/svg" viewBox="0 0 160 40" role="img" aria-label="CalmLeaf - Application de méditation">
  <defs>
    <linearGradient id="leafGradient" x1="0%" y1="0%" x2="100%" y2="100%">
      <stop offset="0%" stop-color="#22c55e"/>
      <stop offset="50%" stop-color="#16a34a"/>
      <stop offset="100%" stop-color="#0f766e"/>
    </linearGradient>
    <linearGradient id="dotGradient" x1="0%" y1="0%" x2="100%" y2="100%">
      <stop offset="0%" stop-color="#bbf7d0"/>
      <stop offset="100%" stop-color="#6ee7b7"/>
    </linearGradient>
  </defs>

  <!-- Monogram circle -->
  <circle cx="20" cy="20" r="16" fill="#ecfdf5"/>

  <!-- Leaf + person icon -->
  <g transform="translate(4 4)">
    <!-- Main leaf -->
    <path
      d="M16 4c4.5 0 8.2 2.1 10.7 5.4C29.3 12.7 30 16 30 19c0 6.1-4.9 11-11 11-6.1 0-11-4.9-11-11 0-3.1.7-6.3 3.3-9.6C13.8 6.1 15.3 4 16 4z"
      fill="url(#leafGradient)"
    />
    <!-- Inner leaf vein -->
    <path
      d="M16 8.5c2.8 2.1 4.5 5.4 4.5 9 0 2.5-.8 4.7-2.2 6.5"
      fill="none"
      stroke="#bbf7d0"
      stroke-width="1.4"
      stroke-linecap="round"
    />
    <!-- Person head -->
    <circle cx="16" cy="11.2" r="2.2" fill="url(#dotGradient)"/>
    <!-- Calm base curve -->
    <path
      d="M9.5 22.5c1.6 1.6 3.9 2.6 6.5 2.6 2.6 0 4.9-1 6.5-2.6"
      fill="none"
      stroke="#bbf7d0"
      stroke-width="1.4"
      stroke-linecap="round"
    />
  </g>

  <!-- Brand text -->
  <g transform="translate(50 11)" fill="#064e3b">
    <!-- "Calm" -->
    <path d="M0.4 9.6C0.4 4.5 3.9 0.7 9 0.7c2.3 0 4 .7 5.4 1.9l-1.5 1.8c-1.1-.9-2.3-1.4-3.8-1.4-3.5 0-5.8 2.6-5.8 6.5 0 3.9 2.3 6.5 5.8 6.5 1.6 0 2.8-.5 3.9-1.5l1.5 1.7C13.2 18.5 11.3 19.2 9 19.2 3.9 19.2 0.4 15.4 0.4 9.6Z"/>
    <path d="M19.4 3.6h2.8l.2 2c1-1.3 2.4-2.3 4.4-2.3 3.2 0 5.1 2.1 5.1 5.6v9.8H29V9.4c0-2.1-1.1-3.4-3.1-3.4-1.9 0-3.4 1.2-4 3v9.7h-2.5V3.6Z"/>
    <path d="M36.9 3.6h2.5v15.1h-2.5V3.6Z"/>
    <path d="M42.8 3.6h2.8l.2 2.1c.9-1.3 2.3-2.4 4.5-2.4 2.1 0 3.6.9 4.5 2.6 1-1.6 2.7-2.6 4.8-2.6 3.1 0 5.1 2.1 5.1 5.6v9.8h-2.5V9.4c0-2.1-1.1-3.4-3.1-3.4-1.8 0-3.2 1.1-3.9 2.9.1.3.1.7.1 1.1v8.7h-2.5V9.4c0-2.1-1.1-3.4-3.1-3.4-1.9 0-3.3 1.2-4 3v9.7h-2.5V3.6Z"/>

    <!-- "Leaf" -->
    <path d="M72.9 3.6h2.5v12.8h7.5v2.3h-10V3.6Z"/>
    <path d="M86.7 11.1c0-4.5 3.1-7.7 7.4-7.7 4.4 0 7.4 3.2 7.4 7.7 0 .3 0 .6 0 .8h-12.2c.3 2.9 2.3 4.7 4.9 4.7 1.8 0 3.3-.7 4.3-2l1.5 1.6c-1.3 1.7-3.4 2.7-5.9 2.7-4.4 0-7.4-3.2-7.4-7.8Zm12.2-1.1c-.3-2.6-2-4.3-4.8-4.3-2.7 0-4.6 1.7-4.9 4.3h9.7Z"/>
    <path d="M104.9 3.6h2.8l.2 2.1c.9-1.3 2.3-2.4 4.5-2.4 2.1 0 3.6.9 4.5 2.6 1-1.6 2.7-2.6 4.8-2.6 3.1 0 5.1 2.1 5.1 5.6v9.8h-2.5V9.4c0-2.1-1.1-3.4-3.1-3.4-1.8 0-3.2 1.1-3.9 2.9.1.3.1.7.1 1.1v8.7h-2.5V9.4c0-2.1-1.1-3.4-3.1-3.4-1.9 0-3.3 1.2-4 3v9.7h-2.5V3.6Z"/>
  </g>
</svg>