<svg width="72" height="72" viewBox="0 0 72 72" fill="none" xmlns="http://www.w3.org/2000/svg">
  <defs>
    <linearGradient id="feature2-bg" x1="10" y1="10" x2="62" y2="62" gradientUnits="userSpaceOnUse">
      <stop offset="0" stop-color="#A7F3D0"/>
      <stop offset="1" stop-color="#34D399"/>
    </linearGradient>
    <linearGradient id="feature2-line" x1="18" y1="50" x2="54" y2="22" gradientUnits="userSpaceOnUse">
      <stop offset="0" stop-color="#059669"/>
      <stop offset="1" stop-color="#047857"/>
    </linearGradient>
    <linearGradient id="feature2-accent" x1="20" y1="56" x2="52" y2="16" gradientUnits="userSpaceOnUse">
      <stop offset="0" stop-color="#6EE7B7"/>
      <stop offset="1" stop-color="#22C55E"/>
    </linearGradient>
    <filter id="feature2-shadow" x="6" y="6" width="60" height="60" filterUnits="userSpaceOnUse" color-interpolation-filters="sRGB">
      <feOffset dy="3" />
      <feGaussianBlur stdDeviation="4" />
      <feColorMatrix type="matrix" values="0 0 0 0 0.047 0 0 0 0 0.196 0 0 0 0 0.125 0 0 0 0.22 0"/>
      <feBlend in2="SourceGraphic" result="shape" />
    </filter>
  </defs>

  <rect width="72" height="72" rx="20" fill="white"/>
  <g filter="url(#feature2-shadow)">
    <rect x="12" y="12" width="48" height="48" rx="16" fill="url(#feature2-bg)"/>
  </g>

  <rect x="20" y="30" width="4" height="18" rx="2" fill="white" fill-opacity="0.9"/>
  <rect x="26.5" y="26" width="4" height="22" rx="2" fill="white" fill-opacity="0.92"/>
  <rect x="33" y="22" width="4" height="26" rx="2" fill="white"/>
  <rect x="39.5" y="28" width="4" height="20" rx="2" fill="white" fill-opacity="0.95"/>
  <rect x="46" y="24" width="4" height="24" rx="2" fill="white" fill-opacity="0.97"/>

  <path d="M20 50C23 47.5 26.5 46 30 46C34.5 46 36.5 48 41 48C44 48 47 47 52 43" stroke="url(#feature2-line)" stroke-width="2.2" stroke-linecap="round" stroke-linejoin="round" />

  <circle cx="33" cy="22" r="4.2" fill="white"/>
  <path d="M31.8 22.3L32.9 23.4C33.04 23.54 33.26 23.54 33.4 23.4L35.2 21.6" stroke="#22C55E" stroke-width="1.4" stroke-linecap="round" stroke-linejoin="round"/>

  <path d="M26 18C26 16.8954 26.8954 16 28 16H44C45.1046 16 46 16.8954 46 18V19C46 20.1046 45.1046 21 44 21H28C26.8954 21 26 20.1046 26 19V18Z" fill="url(#feature2-accent)" />

  <path d="M28.8 18.8H43.2" stroke="white" stroke-width="1.4" stroke-linecap="round"/>

  <circle cx="24" cy="54" r="3" fill="white" fill-opacity="0.9"/>
  <path d="M24 51.5C24.9 51.5 25.8 51.86 26.45 52.51C27.1 53.16 27.46 54.05 27.46 54.95" stroke="#6EE7B7" stroke-width="1.3" stroke-linecap="round" />

  <circle cx="48" cy="54" r="3" fill="white" fill-opacity="0.9"/>
  <path d="M48 51.5C48.9 51.5 49.8 51.86 50.45 52.51C51.1 53.16 51.46 54.05 51.46 54.95" stroke="#6EE7B7" stroke-width="1.3" stroke-linecap="round" />
</svg>