<svg width="72" height="72" viewBox="0 0 72 72" fill="none" xmlns="http://www.w3.org/2000/svg">
  <defs>
    <linearGradient id="feature1-bg" x1="12" y1="10" x2="60" y2="62" gradientUnits="userSpaceOnUse">
      <stop stop-color="#34D399"/>
      <stop offset="1" stop-color="#16A34A"/>
    </linearGradient>
    <linearGradient id="feature1-play" x1="30" y1="24" x2="48" y2="48" gradientUnits="userSpaceOnUse">
      <stop stop-color="#ECFDF5"/>
      <stop offset="1" stop-color="#BBF7D0"/>
    </linearGradient>
    <filter id="feature1-shadow" x="6" y="8" width="60" height="60" filterUnits="userSpaceOnUse" color-interpolation-filters="sRGB">
      <feFlood flood-opacity="0" result="BackgroundImageFix"/>
      <feColorMatrix in="SourceAlpha" type="matrix"
        values="0 0 0 0 0
                0 0 0 0 0
                0 0 0 0 0
                0 0 0 1 0" result="hardAlpha"/>
      <feOffset dy="4"/>
      <feGaussianBlur stdDeviation="6"/>
      <feColorMatrix type="matrix"
        values="0 0 0 0 0.043
                0 0 0 0 0.278
                0 0 0 0 0.161
                0 0 0 0.18 0"/>
      <feBlend in2="BackgroundImageFix" result="effect1_dropShadow"/>
      <feBlend in="SourceGraphic" in2="effect1_dropShadow" result="shape"/>
    </filter>
    <linearGradient id="feature1-wave" x1="18" y1="40" x2="54" y2="44" gradientUnits="userSpaceOnUse">
      <stop stop-color="#DCFCE7"/>
      <stop offset="1" stop-color="#A7F3D0"/>
    </linearGradient>
  </defs>

  <g filter="url(#feature1-shadow)">
    <rect x="12" y="10" width="48" height="48" rx="16" fill="url(#feature1-bg)"/>
  </g>

  <rect x="19" y="20" width="34" height="32" rx="12" fill="white" fill-opacity="0.12" stroke="white" stroke-opacity="0.2"/>

  <path d="M24 44.5C26.2 44.5 27.3 43 29.5 43C31.7 43 32.8 44.5 35 44.5C37.2 44.5 38.3 43 40.5 43C42.7 43 43.8 44.5 46 44.5"
        stroke="url(#feature1-wave)" stroke-width="1.6" stroke-linecap="round" stroke-linejoin="round" opacity="0.9"/>

  <circle cx="36" cy="30" r="11" fill="white" fill-opacity="0.18" stroke="white" stroke-opacity="0.3"/>

  <circle cx="36" cy="30" r="8.2" fill="url(#feature1-play)" />

  <path d="M34.2 26.8C34.2 26.0881 34.2 25.7322 34.3434 25.5017C34.4709 25.2993 34.6649 25.1511 34.8875 25.0925C35.1411 25.026 35.4592 25.1566 36.0953 25.4177L40.0133 27.0154C40.7047 27.299 41.0504 27.4408 41.1909 27.6659C41.3138 27.8633 41.3138 28.1167 41.1909 28.3141C41.0504 28.5392 40.7047 28.681 40.0133 28.9646L36.0953 30.5623C35.4592 30.8234 35.1411 30.954 34.8875 30.8875C34.6649 30.8289 34.4709 30.6807 34.3434 30.4783C34.2 30.2478 34.2 29.8919 34.2 29.18V26.8Z"
        fill="#16A34A"/>

  <path d="M27.5 30C27.5 26.4101 30.4101 23.5 34 23.5"
        stroke="#BBF7D0" stroke-width="1.4" stroke-linecap="round" opacity="0.8"/>

  <circle cx="27.4" cy="34.6" r="1.1" fill="#BBF7D0" opacity="0.9"/>
  <circle cx="44.6" cy="24.8" r="1.1" fill="#BBF7D0" opacity="0.9"/>

  <path d="M42.8 36.2C42.8 37.7464 41.5464 39 40 39"
        stroke="#DCFCE7" stroke-width="1.4" stroke-linecap="round" opacity="0.9"/>

  <circle cx="23.8" cy="26.4" r="0.9" fill="#ECFDF5" opacity="0.8"/>
  <circle cx="48.2" cy="34.4" r="0.9" fill="#ECFDF5" opacity="0.8"/>
</svg>