<svg width="80" height="80" viewBox="0 0 80 80" fill="none" xmlns="http://www.w3.org/2000/svg">
  <defs>
    <linearGradient id="feature3-bg" x1="10" y1="10" x2="70" y2="70" gradientUnits="userSpaceOnUse">
      <stop stop-color="#70E1A0"/>
      <stop offset="1" stop-color="#2BB673"/>
    </linearGradient>
    <linearGradient id="feature3-accent" x1="28" y1="20" x2="52" y2="60" gradientUnits="userSpaceOnUse">
      <stop stop-color="#FFFFFF" stop-opacity="0.95"/>
      <stop offset="1" stop-color="#E9FFF4" stop-opacity="0.9"/>
    </linearGradient>
  </defs>

  <!-- Background soft circle -->
  <circle cx="40" cy="40" r="32" fill="url(#feature3-bg)" opacity="0.18"/>

  <!-- Main rounded card -->
  <rect x="18" y="16" width="44" height="48" rx="10" fill="white"/>
  <rect x="18" y="16" width="44" height="48" rx="10" stroke="#CDEFD9" stroke-width="1.5"/>

  <!-- Top banner -->
  <rect x="18" y="16" width="44" height="12" rx="10" fill="#E8FAF0"/>
  <circle cx="24" cy="22" r="2" fill="#55C88A"/>
  <circle cx="30" cy="22" r="2" fill="#A9E6C4"/>
  <circle cx="36" cy="22" r="2" fill="#D6F5E3"/>

  <!-- User icon (profile silhouette) -->
  <circle cx="30" cy="32" r="6" fill="url(#feature3-accent)"/>
  <circle cx="30" cy="30.5" r="2.3" fill="#55C88A"/>
  <path d="M26.2 35.4C27.2 33.9 28.6 33 30 33C31.4 33 32.8 33.9 33.8 35.4" stroke="#55C88A" stroke-width="1.2" stroke-linecap="round" stroke-linejoin="round"/>

  <!-- Program path (custom plan curve) -->
  <path d="M26 46.5C29 42.5 33.2 41 36.8 42C40.4 43 42.4 46 45.2 47C47 47.7 49.1 47.5 52 46" stroke="#55C88A" stroke-width="1.6" stroke-linecap="round" fill="none"/>

  <!-- Waypoints -->
  <circle cx="26" cy="46.5" r="2.1" fill="white" stroke="#55C88A" stroke-width="1.3"/>
  <circle cx="36.8" cy="42" r="2.1" fill="white" stroke="#55C88A" stroke-width="1.3"/>
  <circle cx="45.2" cy="47" r="2.1" fill="white" stroke="#55C88A" stroke-width="1.3"/>
  <circle cx="52" cy="46" r="2.1" fill="#55C88A"/>

  <!-- Checkmark on final point -->
  <path d="M51.1 45.9L51.9 46.7L53 45.4" stroke="white" stroke-width="1.1" stroke-linecap="round" stroke-linejoin="round"/>

  <!-- Personalization sliders -->
  <line x1="24" y1="55" x2="50" y2="55" stroke="#E0F4EA" stroke-width="1.4" stroke-linecap="round"/>
  <circle cx="32" cy="55" r="3" fill="#55C88A"/>
  <line x1="24" y1="59.5" x2="50" y2="59.5" stroke="#E0F4EA" stroke-width="1.4" stroke-linecap="round"/>
  <circle cx="42" cy="59.5" r="3" fill="#A9E6C4"/>
</svg>