<svg width="153" height="46" viewBox="0 0 153 46" xmlns="http://www.w3.org/2000/svg" role="img" aria-label="Disponible sur Google Play">
  <defs>
    <linearGradient id="gp-a" x1="0%" y1="0%" x2="100%" y2="100%">
      <stop offset="0%" stop-color="#00A0FF"/>
      <stop offset="50%" stop-color="#00D2FF"/>
      <stop offset="100%" stop-color="#00E3FF"/>
    </linearGradient>
    <linearGradient id="gp-b" x1="0%" y1="0%" x2="100%" y2="0%">
      <stop offset="0%" stop-color="#FFE000"/>
      <stop offset="50%" stop-color="#FFBD00"/>
      <stop offset="100%" stop-color="#FFA500"/>
    </linearGradient>
    <linearGradient id="gp-c" x1="0%" y1="100%" x2="100%" y2="0%">
      <stop offset="0%" stop-color="#FF3A44"/>
      <stop offset="50%" stop-color="#FF1C73"/>
      <stop offset="100%" stop-color="#FF0C88"/>
    </linearGradient>
    <linearGradient id="gp-d" x1="0%" y1="0%" x2="100%" y2="100%">
      <stop offset="0%" stop-color="#32A071"/>
      <stop offset="50%" stop-color="#00C98F"/>
      <stop offset="100%" stop-color="#00E574"/>
    </linearGradient>
  </defs>

  <rect x="0.5" y="0.5" width="152" height="45" rx="8" fill="#0F172A"/>
  <rect x="0.5" y="0.5" width="152" height="45" rx="8" fill="none" stroke="#16A34A" stroke-opacity="0.7"/>

  <g transform="translate(10 7)">
    <path d="M1.5 2.2C1.19 2.44 1 2.87 1 3.45v25.1c0 .58.19 1.01.5 1.25l.08.06L16.7 15.68v-.26L1.58 2.12 1.5 2.2z" fill="url(#gp-a)"/>
    <path d="M20.42 19.52 16.7 15.68v-.26l3.72-3.83.09.05 4.41 2.5c1.26.71 1.26 1.88 0 2.6l-4.41 2.5-.09.08z" fill="url(#gp-b)"/>
    <path d="m20.51 19.47-3.81-3.86L1.5 29.85c.49.4 1.2.45 2.04-.03l16.97-10.35" fill="url(#gp-c)"/>
    <path d="M20.51 11.24 3.54.89C2.7.4 1.99.49 1.5.89L16.7 15.67l3.81-3.86z" fill="url(#gp-d)"/>
    <path d="M1.5 2.2C1.19 2.44 1 2.87 1 3.45v25.1c0 .58.19 1.01.5 1.25l.08.06L16.7 15.68v-.26L1.58 2.12 1.5 2.2z" fill="#000" fill-opacity=".15"/>
  </g>

  <g fill="#FFFFFF" font-family="system-ui, -apple-system, BlinkMacSystemFont, 'SF Pro Text', 'Segoe UI', sans-serif" font-smoothing="antialiased">
    <text x="42" y="17" font-size="8" letter-spacing=".03em" fill="#E5E7EB">DISPONIBLE SUR</text>
    <text x="42" y="31" font-size="13" font-weight="600">Google Play</text>
  </g>
</svg>